<svg xmlns="http://www.w3.org/2000/svg" viewBox="0 0 100 100">
  <rect width="100" height="100" fill="#3B8526"/>
  <rect x="10" y="10" width="20" height="20" fill="#6B4423"/>
  <rect x="30" y="10" width="20" height="20" fill="#8B5A2B"/>
  <rect x="50" y="10" width="20" height="20" fill="#6B4423"/>
  <rect x="70" y="10" width="20" height="20" fill="#8B5A2B"/>
  <rect x="10" y="30" width="20" height="20" fill="#8B5A2B"/>
  <rect x="30" y="30" width="20" height="20" fill="#6B4423"/>
  <rect x="50" y="30" width="20" height="20" fill="#8B5A2B"/>
  <rect x="70" y="30" width="20" height="20" fill="#6B4423"/>
  <rect x="10" y="50" width="20" height="20" fill="#6B4423"/>
  <rect x="30" y="50" width="20" height="20" fill="#8B5A2B"/>
  <rect x="50" y="50" width="20" height="20" fill="#6B4423"/>
  <rect x="70" y="50" width="20" height="20" fill="#8B5A2B"/>
  <rect x="10" y="70" width="20" height="20" fill="#8B5A2B"/>
  <rect x="30" y="70" width="20" height="20" fill="#6B4423"/>
  <rect x="50" y="70" width="20" height="20" fill="#8B5A2B"/>
  <rect x="70" y="70" width="20" height="20" fill="#6B4423"/>
</svg>
